<svg xmlns="http://www.w3.org/2000/svg" viewBox="0 0 212.92 39.7"><path d="M58.39 23.09c-.17-.43-.25-1.03-.25-1.79s.26-3.02.78-6.78c.52-3.74.78-6.75.78-9.02 0-.53-.04-1.26-.11-2.19 1.35.08 2.19.39 2.53.95.18.33.29.64.34.93.05.29.08.76.08 1.39 0 .62-.29 2.99-.86 7.1-.58 4.11-.88 7.04-.89 8.8.09-.03.25-.04.48-.04 3.85 0 6.71-.27 8.59-.8-.13 1.03-.48 1.83-1.05 2.4-.58.57-1.31.86-2.17.86-.25 0-1.02-.06-2.3-.17a44.21 44.21 0 0 0-3.75-.17c-1.21 0-2.42.11-3.64.34.24-.79.72-1.39 1.45-1.81Zm17.53-8.83c-.51.89-.9 1.8-1.18 2.74-.28.93-.42 1.82-.42 2.68 0 .85.19 1.57.57 2.17.38.6.93.89 1.64.89 1 0 1.94-.55 2.8-1.64.88-1.1 1.55-2.43 2.02-3.98.47-1.56.7-3 .7-4.32 0-1.32-.05-2.41-.15-3.26.42-.04.69-.06.8-.06 1.51 0 2.27.77 2.27 2.32 0 .33-.22 1.7-.65 4.11-.42 2.41-.63 4.34-.63 5.79 0 1.45.27 2.73.82 3.85-1.12-.23-1.93-.72-2.44-1.49-.51-.75-.76-1.83-.76-3.26 0-.25.04-.74.11-1.45-.48 1.69-1.33 3.05-2.53 4.07-1.22 1.04-2.41 1.56-3.56 1.56-1.17 0-2.11-.44-2.82-1.33-.71-.88-1.07-2.09-1.07-3.64 0-1.56.29-3.08.88-4.57a10.06 10.06 0 0 1 2.61-3.85c1.16-1.09 2.46-1.64 3.9-1.64.62 0 1.31.13 2.06.38-1.05.27-2.02.76-2.89 1.47a9.14 9.14 0 0 0-2.08 2.42Zm26.83-8.09.02.32c0 .67-.25 2.88-.76 6.63-.51 3.73-.76 6.85-.76 9.37 0 1.12.06 1.99.17 2.61-.43.04-.67.06-.7.06-.8 0-1.4-.18-1.79-.55-.38-.37-.57-.96-.57-1.79 0-.83.3-3.35.89-7.58.58-4.21.88-7.22.88-9.02 0-1.8-.12-2.98-.36-3.54.57.08 1.1.3 1.58.67.5.36.86.84 1.1 1.45 1.36-.72 2.87-1.09 4.53-1.09 1.65 0 2.95.51 3.9 1.52.95 1.03 1.43 2.28 1.43 3.77 0 1.9-.69 3.62-2.08 5.14-1.38 1.51-3.25 2.27-5.6 2.27-.53 0-1.02-.03-1.47-.1l-.08-.86c1.19 0 2.23-.18 3.12-.53.89-.36 1.56-.83 2.02-1.41.9-1.14 1.35-2.48 1.35-4 0-1.1-.35-2.02-1.05-2.76-.7-.74-1.71-1.1-3.05-1.1-.8 0-1.71.18-2.74.53Zm15.46 8.09c-.52.89-.92 1.8-1.2 2.74-.27.93-.4 1.82-.4 2.68 0 .85.19 1.57.57 2.17.38.6.93.89 1.64.89.99 0 1.92-.55 2.8-1.64.86-1.1 1.53-2.43 2-3.98.48-1.56.72-3 .72-4.32 0-1.32-.06-2.41-.17-3.26.43-.04.7-.06.8-.06 1.51 0 2.27.77 2.27 2.32 0 .33-.21 1.7-.63 4.11-.43 2.41-.65 4.34-.65 5.79 0 1.45.27 2.73.82 3.85-1.12-.23-1.93-.72-2.44-1.49-.51-.75-.76-1.83-.76-3.26 0-.25.04-.74.11-1.45-.48 1.69-1.33 3.05-2.53 4.07-1.21 1.04-2.39 1.56-3.56 1.56s-2.11-.44-2.82-1.33c-.71-.88-1.07-2.09-1.07-3.64 0-1.56.29-3.08.88-4.57a10.06 10.06 0 0 1 2.61-3.85c1.17-1.09 2.47-1.64 3.9-1.64.62 0 1.31.13 2.06.38-1.05.27-2.01.76-2.87 1.47-.88.71-1.57 1.52-2.08 2.42Zm25.49-1.16c0 .81-.17 2.25-.51 4.32-.34 2.07-.51 3.58-.51 4.53 0 .94.11 1.62.34 2.04.23.42.62.77 1.18 1.07-.24.03-.57.04-.99.04-1.21 0-2.06-.23-2.57-.69-.51-.46-.76-1.27-.76-2.44 0-.66.18-1.99.53-3.98.36-2.01.53-3.48.53-4.42 0-1.17-.36-1.75-1.07-1.75-1.14 0-2.32 1-3.54 3.01-1.22 2.01-1.83 4.42-1.83 7.25 0 1.12.06 1.99.17 2.61-.47.04-.75.06-.84.06-1.56 0-2.34-.77-2.34-2.3 0-.36.19-1.72.57-4.09.37-2.39.55-4.28.55-5.69 0-1.42-.15-2.72-.46-3.9 1.05.41 1.79.98 2.21 1.73.42.76.63 1.62.63 2.59 0 .96-.11 2.09-.32 3.37.58-2.01 1.5-3.69 2.76-5.06 1.24-1.38 2.41-2.08 3.5-2.08 1.84 0 2.76 1.26 2.76 3.79Zm12.78-3.01c0 .74-.14 1.25-.42 1.54-.29.28-.71.42-1.26.42h-1.92c-.08.47-.26 1.57-.55 3.31-.61 3.3-.91 5.79-.91 7.48 0 1.69.13 2.81.38 3.37-1.02-.38-1.74-.95-2.17-1.69-.42-.76-.63-1.68-.63-2.76 0-1.09.06-2.12.19-3.08.14-.96.33-2.09.57-3.39.25-1.31.43-2.35.53-3.12-1.02.14-2.01.43-2.99.86-.03-.29-.04-.55-.04-.78 0-.85.28-1.42.84-1.71.57-.29 1.39-.44 2.46-.44.13-1.32.19-2.3.19-2.95 0-.65 0-1.17-.02-1.56v-.88c.81.13 1.44.49 1.88 1.09.44.58.67 1.4.67 2.44 0 .53-.04 1.18-.13 1.94 1.55 0 2.64-.26 3.27-.78.04.25.06.49.06.7Zm5.01 6.36c.58-2.01 1.49-3.69 2.7-5.06 1.22-1.38 2.36-2.08 3.43-2.08 1.07 0 1.82.32 2.27.97.44.65.67 1.53.67 2.65 0 1.1-.17 2.66-.51 4.66-.34 2.02-.51 3.48-.51 4.4 0 .91.11 1.58.34 2 .23.42.62.77 1.16 1.07-.23.03-.55.04-.97.04-1.14 0-1.99-.23-2.53-.7-.53-.47-.8-1.28-.8-2.42 0-.66.18-1.99.53-3.98.36-2.01.53-3.48.53-4.42 0-1.17-.41-1.75-1.24-1.75-.48 0-1.02.25-1.6.76-.58.5-1.15 1.17-1.69 2.04-.53.86-.98 1.96-1.35 3.29-.37 1.32-.55 2.62-.55 3.9 0 1.29.06 2.25.17 2.87-.43.04-.67.06-.72.06-.84 0-1.45-.18-1.85-.53-.41-.36-.61-.91-.61-1.68 0-.75.16-2.2.48-4.36.94-6.61 1.41-11.63 1.41-15.06 0-1.55-.1-2.59-.3-3.12 1.03.38 1.75.93 2.17 1.66.42.74.63 1.74.63 3.01 0 .89-.18 2.75-.53 5.6-.34 2.84-.58 4.91-.7 6.19Zm20.16-5.75c-1.07 0-1.97.61-2.7 1.83-.75 1.23-1.24 2.67-1.49 4.32h.74c.94 0 1.76-.13 2.46-.4.69-.27 1.22-.61 1.6-1.03.71-.83 1.07-1.75 1.07-2.78 0-.58-.14-1.05-.42-1.41-.28-.36-.7-.53-1.26-.53Zm3.75 10.8c-.81 1.33-1.71 2.27-2.68 2.8-.98.53-2.11.8-3.41.8-1.28 0-2.41-.57-3.37-1.71-.96-1.13-1.45-2.73-1.45-4.8 0-2.35.63-4.44 1.9-6.28.62-.89 1.43-1.61 2.44-2.17 1-.55 2.11-.82 3.31-.82 2.67 0 4 1.29 4 3.86 0 1.55-.6 2.76-1.79 3.64-1.21.88-2.6 1.31-4.17 1.31-1.05 0-2-.1-2.84-.29-.01.18-.02.45-.02.82 0 3.15.93 4.72 2.8 4.72 1.75 0 3.18-.87 4.28-2.61.66.09.99.33.99.72Zm-.53-14.18c-.01.19-.11.37-.29.55-.16.17-.36.27-.57.32-.63-.8-1.45-1.59-2.46-2.36-1-.79-2.02-1.34-3.07-1.66.04-.93.47-1.66 1.29-2.19.94.37 1.91 1.1 2.91 2.21 1 1.09 1.73 2.13 2.17 3.12Zm7.86 8.72c.63-2.31 1.4-4.01 2.3-5.1.9-1.09 1.74-1.64 2.51-1.64.77 0 1.35.29 1.73.86.39.58.59 1.32.59 2.21 0 .89-.23 1.66-.69 2.3-.47.65-1.15.97-2.04.97-.28 0-.5-.02-.67-.06.61-.88.91-1.76.91-2.67 0-.63-.26-.95-.78-.95-.41 0-.84.23-1.29.7-.47.48-.91 1.15-1.33 2-.43.86-.79 1.97-1.07 3.33-.29 1.37-.44 2.85-.44 4.44 0 .18.04.93.13 2.27-.46.04-.72.06-.8.06-1.56 0-2.34-.77-2.34-2.3 0-.36.19-1.72.57-4.09.37-2.39.55-4.28.55-5.69 0-1.42-.15-2.72-.46-3.9 1.05.41 1.79.98 2.21 1.73.42.76.63 1.64.63 2.65 0 1-.08 1.97-.25 2.89Zm15.71-5.33c-1.07 0-1.97.61-2.72 1.83-.74 1.23-1.22 2.67-1.47 4.32h.74c.94 0 1.76-.13 2.46-.4.69-.27 1.22-.61 1.6-1.03.71-.83 1.07-1.75 1.07-2.78 0-.58-.14-1.05-.42-1.41-.28-.36-.7-.53-1.26-.53Zm3.75 10.8c-.81 1.33-1.71 2.27-2.68 2.8-.98.53-2.11.8-3.41.8-1.28 0-2.41-.57-3.37-1.71-.96-1.13-1.45-2.73-1.45-4.8 0-2.35.63-4.44 1.9-6.28.62-.89 1.43-1.61 2.44-2.17 1-.55 2.11-.82 3.31-.82 2.67 0 4 1.29 4 3.86 0 1.55-.6 2.76-1.79 3.64-1.21.88-2.6 1.31-4.17 1.31-1.05 0-2-.1-2.84-.29-.01.18-.02.45-.02.82 0 3.15.93 4.72 2.8 4.72 1.75 0 3.18-.87 4.28-2.61.66.09.99.33.99.72Z"/><path d="M21.06 17.94v-.04c-.4-.71-1.07-1.23-1.86-1.44h-.07c-.43-.13-.87-.21-1.32-.25a8.206 8.206 0 0 1-3.4-1.26.392.392 0 0 0-.54.14c-.1.17-.06.4.1.52.34.22.69.41 1.06.59 0 .05-.05.11-.06.16-.48 1.7.5 3.47 2.19 3.97.31.09.62.13.94.13.97 0 1.89-.44 2.48-1.21.05.53.01 1.07-.1 1.59a.4.4 0 0 0 .22.52c.01 0 .02 0 .03.01h.13c.17 0 .32-.11.38-.27.17-.71.21-1.44.12-2.17a2.51 2.51 0 0 0-.29-1Zm-2.36-.79c.02.09.02.18 0 .27-.1.37-.49.58-.86.48s-.58-.49-.48-.86c.01-.03.03-.06.05-.09l.32.04c.33.02.66.08.98.16h-.01Zm.5 2.24c-.57.29-1.23.35-1.84.17a2.42 2.42 0 0 1-1.66-3v-.06c.29.11.59.21.9.29v.03c-.25.78.18 1.61.96 1.86a1.478 1.478 0 0 0 1.92-1.24c.32.16.59.4.78.7-.18.53-.56.98-1.05 1.25h-.01Zm14.33-3.05c0-.06-.04-.11-.06-.16.37-.17.72-.37 1.06-.59.17-.13.21-.38.08-.56a.403.403 0 0 0-.52-.1c-1.03.67-2.19 1.1-3.4 1.26-.45.03-.9.12-1.33.25h-.06c-.79.21-1.47.73-1.87 1.45v.03c-.17.32-.26.67-.29 1.03a6.1 6.1 0 0 0 .12 2.17.4.4 0 0 0 .38.27c.22 0 .4-.17.4-.39 0-.05 0-.09-.02-.14-.11-.52-.14-1.06-.1-1.59.59.77 1.51 1.21 2.48 1.21.32 0 .64-.04.94-.13 1.71-.49 2.7-2.27 2.21-3.98v-.02Zm-2.8.65.32-.04s.03.06.05.09c.1.36-.11.74-.47.85a.675.675 0 0 1-.84-.44c-.03-.1-.04-.2-.02-.3.32-.08.64-.13.97-.15Zm.39 2.57c-.61.18-1.27.12-1.84-.17-.5-.27-.88-.72-1.06-1.26.2-.29.47-.53.78-.69 0 .07.02.13.04.2.19.63.77 1.06 1.42 1.06a1.477 1.477 0 0 0 1.4-1.85v-.03c.3-.08.6-.18.9-.29v.06a2.42 2.42 0 0 1-1.64 2.98Z" style="fill:#1d1d1b"/><path d="M22.29 17.31c-.08-1.19-1.06-1.95-2.72-2.07-.88-.11-1.72-.42-2.47-.89-.18-.12-.43-.07-.55.11s-.07.43.11.55c.86.55 1.84.9 2.86 1.02.71.05 1.92.3 1.99 1.34.01.21.19.37.4.37h.03a.39.39 0 0 0 .36-.42Zm6.86-1.28c1.02-.12 1.99-.47 2.86-1.02.18-.12.23-.37.11-.55s-.37-.23-.55-.11c-.75.48-1.6.79-2.48.91-1.64.13-2.64.88-2.72 2.07-.02.22.15.41.37.42h.03c.21 0 .38-.16.4-.37.07-1.07 1.3-1.3 1.99-1.35Zm-13.04-2.75c.13.17.38.21.56.07s.21-.38.07-.56c0 0 0-.01-.01-.02l-1.69-2.07c-.13-.17-.38-.21-.56-.07s-.21.38-.07.56c0 0 0 .01.01.02l1.69 2.07Zm1.78-1.15a.393.393 0 0 0 .76-.15c0-.04 0-.09-.02-.13l-.75-1.95c-.08-.2-.31-.31-.51-.23s-.31.31-.23.51l.75 1.94Zm2.12.06c.21 0 .38-.16.4-.36l.13-1.68a.394.394 0 0 0-.36-.43.393.393 0 0 0-.43.35v.01l-.13 1.69c-.01.22.15.41.37.42h.03Z" style="fill:#1d1d1b"/><path d="M48.19 25.83c-2.06-.66-6.92-.6-10.86-.42 2.64-3.34 2.64-6.56 2.17-8.08-.36-1.14-.91-4-.21-5.12.13-.23.36-.38.62-.41.93-.12 1.1-1.09 1.23-1.86.04-.28.1-.55.19-.81.16-.29.38-.53.65-.72.74-.59 1.32-1.36 1.68-2.24.84-2.07-.29-3.09-.33-3.13a.348.348 0 0 0-.15-.07h-.07c-.86-.23-1.78-.09-2.54.39-.36.17-.8.39-1.46.66-1.41.71-3.12.43-4.23-.7C32.5 1.04 30.82.38 24.26.38s-8.22.67-10.58 2.95a3.636 3.636 0 0 1-4.23.7c-.49-.21-.98-.43-1.46-.66-.76-.47-1.68-.61-2.54-.39h-.07c-.05.01-.1.04-.15.07-.05.04-1.17 1.06-.33 3.13.36.88.94 1.65 1.68 2.24.27.19.49.44.65.72.06.28.09.55.09.84.13.78.3 1.74 1.23 1.86.26.03.49.18.62.41.71 1.12.15 3.98-.21 5.12-.48 1.52-.46 4.76 2.17 8.08-3.94-.18-8.8-.24-10.86.42-.21.07-.32.29-.26.5.07.21.29.32.5.26 2.16-.69 7.93-.53 11.2-.35h.13l.34.36c-4.06.06-6.82.34-8.2.84-.21.07-.32.29-.25.5.07.21.29.32.5.25h.02c1.36-.49 4.39-.77 8.76-.8.19.16.38.31.57.47-3.42.19-8.99.64-11.1 1.59-.19.1-.27.34-.16.54.09.17.3.25.48.19 2.2-.97 8.56-1.4 11.75-1.56l.53.38.05.04c-3.33.32-5.6.74-6.76 1.25-.19.1-.27.34-.16.54.09.17.3.25.48.19 1.09-.48 3.41-.89 6.73-1.21-.02.98.11 1.95.36 2.9.86 2.28 2.04 2.84 3.42 2.96.2.37.47.7.8.96-.74.67-1.35 1.47-1.79 2.36-.08.2.02.43.23.51s.43-.02.51-.23c.14-.37.57-1.06 1.74-2.22.34.17.69.31 1.06.41-.26.58-.42 1.19-.49 1.81a.4.4 0 0 0 .37.42c.21 0 .39-.16.4-.38.07-.58.23-1.15.48-1.68 1.14.19 2.31.19 3.46 0 .25.53.41 1.1.48 1.68.01.21.19.38.4.38.22-.01.39-.2.38-.42-.06-.63-.22-1.24-.47-1.82.37-.1.72-.24 1.06-.41 1.17 1.16 1.59 1.85 1.74 2.22.08.2.31.31.51.23s.31-.31.23-.51a8.103 8.103 0 0 0-1.79-2.36c.33-.26.61-.59.8-.96 1.37-.12 2.55-.67 3.41-2.96.25-.94.36-1.91.34-2.88 3.32.31 5.64.72 6.73 1.21.19.1.43.03.54-.16.1-.19.03-.43-.16-.54-.02 0-.04-.02-.06-.02-1.17-.53-3.49-.94-6.87-1.26l.42-.3.16-.12c3.17.16 9.62.59 11.86 1.59.21.07.43-.04.51-.24a.406.406 0 0 0-.19-.48c-2.15-.94-7.73-1.39-11.14-1.59.2-.15.4-.31.59-.47 4.38.03 7.4.3 8.77.8.21.07.43-.04.5-.25a.39.39 0 0 0-.23-.49c-1.37-.5-4.13-.78-8.2-.84l.34-.36h.13c3.25-.16 9.04-.34 11.2.35.22.07.46-.06.53-.28a.428.428 0 0 0-.28-.53Zm-22.21 10a.404.404 0 0 0-.54-.15c-.19.11-.25.35-.15.54.08.14.21.37.34.63-.92.13-1.84.13-2.76 0 .19-.38.33-.63.34-.63a.395.395 0 1 0-.69-.39c0 .03-.22.39-.46.88-.72-.16-1.38-.52-1.89-1.06h1.28c1.16 0 2.22-.64 2.78-1.66a3.195 3.195 0 0 0 2.8 1.66h1.28c-.51.53-1.17.9-1.89 1.06-.24-.48-.44-.82-.46-.86h.02Zm9.04-9.14-.04.03c-.44.37-.94.73-1.42 1.06h-.41c.07-.9.24-1.72.57-1.96.18-.14.21-.39.07-.57a.401.401 0 0 0-.57-.07c-.53.44-.76 1.4-.86 2.55h-.32a.396.396 0 0 0-.41.36v.02c0 .22.17.4.39.41h.3v.39h-.1a.394.394 0 0 0-.43.36c-.02.22.14.41.36.43h.11c.02.9-.08 1.8-.3 2.67-.75 1.98-1.64 2.4-2.93 2.46h-2c-1.31 0-2.37-1.05-2.4-2.36.18-.17.39-.32.61-.44.53-.34 1.31-.8 1.02-1.48-.1-.23-.03-.34.88-.96l.33-.23c.39-.21.65-.61.69-1.06-.02-.35-.21-.66-.5-.85a.388.388 0 0 0-.53.12c-.1.18-.06.41.11.53.04.03.14.12.14.2s-.09.22-.35.4l-.33.23c-.86.58-1.54 1.06-1.16 1.89-.04.13-.47.39-.7.53-.21.12-.41.26-.6.41-.19-.15-.39-.28-.6-.41-.25-.14-.49-.3-.7-.49.38-.88-.31-1.34-1.16-1.93l-.33-.23c-.25-.18-.35-.32-.35-.4s.1-.16.14-.2a.39.39 0 0 0 .09-.55.403.403 0 0 0-.52-.11c-.29.19-.48.5-.5.85.03.45.29.85.69 1.06l.33.23c.91.62.98.73.88.96-.29.68.47 1.14 1.02 1.48a5 5 0 0 1 .61.41c0 1.32-1.08 2.39-2.4 2.39h-.82c-1.97.05-3.17.07-4.11-2.46-.21-.87-.31-1.77-.3-2.67h.11c.22-.02.38-.21.36-.43a.394.394 0 0 0-.43-.36h-.07v-.39h.3c.22 0 .4-.18.4-.4s-.18-.4-.4-.4h-.32c-.1-1.16-.31-2.12-.86-2.55a.44.44 0 0 0-.61.06.44.44 0 0 0 .06.61c.33.26.48 1.06.56 1.96h-.5c-.45-.34-.9-.69-1.31-1.06-.02-.03-.05-.05-.08-.07-.14-.12-.27-.24-.4-.36l1.23.08h.03a.4.4 0 0 0 .41-.38.4.4 0 0 0-.38-.41s-.83-.06-2.12-.13c-2.88-3.27-2.95-6.45-2.5-7.89 0-.04 1.23-4.03.12-5.78-.26-.41-.68-.69-1.16-.76-.33-.04-.43-.53-.53-1.21a5.27 5.27 0 0 0-.23-.97c-.2-.41-.5-.76-.86-1.03a4.76 4.76 0 0 1-1.47-1.94c-.53-1.25-.12-1.94.05-2.16.39-.03.77.07 1.09.29.04.03 3.98 2.92 5.71 2.92h.19c-1.59 1.14-2.52 2.59-2.52 4.01 0 .22.18.4.4.4s.4-.18.4-.4c0-1.49 1.37-3.11 3.51-4.16.83-.12 1.63-.39 2.37-.79.19-.1.27-.34.16-.54s-.34-.27-.54-.16h-.01c-1.24.61-2.62.9-4 .84-.66 0-1.92-.64-3.1-1.35 1.67.75 3.63.39 4.92-.91 2.12-2.02 3.43-2.72 10.05-2.72s7.93.71 10.05 2.72c.8.82 1.9 1.29 3.05 1.3.62 0 1.24-.13 1.82-.36-1.17.7-2.43 1.34-3.09 1.34-1.38.06-2.76-.22-4-.84a.408.408 0 0 0-.54.16c-.1.19-.03.42.15.53.74.4 1.55.67 2.38.8 2.12 1.06 3.51 2.64 3.51 4.16 0 .22.18.4.4.4s.4-.18.4-.4c0-1.43-.94-2.88-2.52-4.01h.23c1.73 0 5.67-2.89 5.71-2.92.32-.22.7-.32 1.09-.29.17.23.56.91.05 2.16a4.76 4.76 0 0 1-1.47 1.94c-.37.27-.66.62-.86 1.03-.11.32-.19.64-.23.97-.12.7-.22 1.17-.53 1.21-.49.06-.93.34-1.19.77-1.12 1.75.11 5.74.12 5.78.46 1.44.38 4.62-2.5 7.89-1.26.07-2.12.13-2.12.13-.22 0-.39.19-.38.41s.19.39.41.38h.03l1.23-.08c-.11.12-.27.25-.42.38Z" style="fill:#1d1d1b"/><path d="M32.04 13.42c.12 0 .23-.06.31-.15l1.69-2.07c.14-.17.13-.42-.04-.56a.396.396 0 0 0-.56.04s0 .01-.01.02l-1.69 2.07c-.14.17-.11.42.06.56.07.06.16.09.25.09Zm-1.96-1.06h.14c.16 0 .31-.1.37-.25l.75-1.95c.08-.2-.02-.43-.23-.51s-.43.02-.51.23l-.75 1.95c-.09.2 0 .43.19.53.01 0 .02 0 .03.01Zm-1.62-.16a.41.41 0 0 0 .37-.43l-.13-1.69a.394.394 0 0 0-.43-.36c-.22.02-.38.21-.36.43l.13 1.69c.02.22.21.38.43.37Z" style="fill:#1d1d1b"/><circle cx="17.96" cy="30.51" r=".56" style="fill:#1d1d1b"/><circle cx="18.14" cy="32.39" r=".56" style="fill:#1d1d1b"/><circle cx="19.59" cy="33.64" r=".56" style="fill:#1d1d1b"/><circle cx="20.08" cy="31.71" r=".56" style="fill:#1d1d1b"/><circle cx="21.62" cy="32.68" r=".56" style="fill:#1d1d1b"/><circle cx="30.51" cy="30.51" r=".56" style="fill:#1d1d1b"/><circle cx="30.33" cy="32.39" r=".56" style="fill:#1d1d1b"/><circle cx="28.88" cy="33.64" r=".56" style="fill:#1d1d1b"/><circle cx="28.39" cy="31.71" r=".56" style="fill:#1d1d1b"/><circle cx="26.85" cy="32.68" r=".56" style="fill:#1d1d1b"/><path d="M26.12 21.34a.394.394 0 0 0-.43.36 4.868 4.868 0 0 1-1.45 2.85c-.79-.76-1.3-1.77-1.44-2.86a.394.394 0 0 0-.43-.36c-.22.02-.38.21-.36.43.19 1.41.89 2.7 1.97 3.63.07.06.16.09.25.09s.18-.03.25-.09a5.813 5.813 0 0 0 1.97-3.63c.02-.2-.12-.39-.32-.42Zm-6.97 1.43a.399.399 0 0 0-.53.14c-.11.19-.24.38-.39.59-.71 1.03-1.78 2.58-.27 4.23.17.14.42.12.56-.05.11-.14.12-.33.02-.48-1-1.08-.49-2.02.34-3.23.15-.23.3-.44.42-.64.12-.18.06-.43-.12-.55-.01 0-.02-.01-.03-.02Zm10.74.14a.404.404 0 0 0-.54-.15c-.19.11-.25.35-.15.54.12.2.26.41.42.64.83 1.21 1.34 2.14.34 3.23a.397.397 0 1 0 .51.61c.03-.02.05-.05.07-.08 1.51-1.63.44-3.17-.27-4.23-.13-.18-.27-.38-.38-.56Zm-9.94 5.04a.397.397 0 0 0-.26-.5.397.397 0 0 0-.5.26 2.2 2.2 0 0 0 1.01 2.55.395.395 0 1 0 .39-.69c-.57-.32-.84-.99-.65-1.62Zm8.32 2.29a2.2 2.2 0 0 0 1.01-2.55.405.405 0 0 0-.5-.26c-.21.07-.32.29-.26.5.18.62-.09 1.29-.65 1.6-.19.11-.25.35-.15.54s.35.25.54.15v.02Zm-2.51-2.21a2.027 2.027 0 0 1-3.05 0 .4.4 0 0 0-.57-.04.4.4 0 0 0-.04.57 2.818 2.818 0 0 0 3.97.31c.11-.09.21-.2.31-.31.15-.17.13-.43-.04-.57a.399.399 0 0 0-.57.04Zm-11.83-7.74c-.18-.12-.43-.07-.55.11s-.07.43.11.55l.06.03c1.39.77 1.99 1.9 1.99 2.31 0 .22.18.4.4.4s.4-.18.4-.4c0-.82-.9-2.17-2.41-3Zm21.19.16a.393.393 0 0 0-.53-.16c-1.52.83-2.43 2.18-2.43 3 0 .22.18.4.4.4s.4-.18.4-.4c0-.41.6-1.54 1.99-2.31.19-.1.27-.34.17-.53Z" style="fill:#1d1d1b"/><path d="m60.06 30.13-.48-1.21h-1.85l-.48 1.21h-.31l1.54-3.86h.35l1.54 3.86h-.31Zm-2.22-1.48h1.63l-.67-1.68-.14-.41-.14.4-.67 1.7Zm7.56-.41h1.59v1.89h-.23v-.67h-.01c-.11.23-.27.41-.49.54-.23.13-.5.19-.84.19-.35 0-.66-.08-.92-.24-.26-.16-.47-.39-.61-.69-.14-.3-.21-.65-.21-1.05s.07-.75.22-1.05c.14-.3.35-.53.61-.69.26-.16.57-.24.92-.24.4 0 .72.08.96.23.25.16.44.39.56.71l-.27.14c-.09-.27-.24-.47-.45-.61-.21-.14-.48-.21-.81-.21-.29 0-.54.07-.76.21-.22.14-.39.34-.51.6-.12.26-.18.56-.18.91 0 .53.13.96.38 1.26.26.31.61.46 1.06.46.28 0 .52-.06.71-.17.19-.11.34-.26.43-.44.09-.18.14-.38.14-.58v-.21h-1.31v-.28Zm5.84 1.62h2.44v.27h-2.73v-3.86h2.64v.27h-2.34v1.49h1.85v.28h-1.85v1.56Zm9.17-3.59v3.86h-.36L78 27.1l-.28-.51.02.48v3.06h-.28v-3.86h.37l2.04 3.02.29.52v-.48l-.01-3.06h.28Zm7.19 2.88c-.11.33-.3.58-.57.76-.27.18-.6.27-.97.27-.35 0-.66-.08-.93-.24-.26-.16-.47-.39-.61-.69-.14-.3-.21-.65-.21-1.05s.07-.75.21-1.05c.14-.3.35-.53.61-.69.27-.16.57-.24.92-.24.77 0 1.27.32 1.5.95l-.29.13c-.09-.27-.23-.48-.43-.61-.2-.14-.45-.2-.76-.2-.29 0-.54.07-.76.21-.22.14-.39.34-.51.6-.12.26-.18.56-.18.91s.06.66.18.91c.12.26.28.46.5.6.22.14.47.21.76.21.31 0 .58-.08.79-.23.22-.15.37-.37.46-.65l.29.11Zm4.08.71h2.44v.27h-2.73v-3.86h2.64v.27h-2.34v1.49h1.85v.28h-1.85v1.56Zm12.18-3.59c.62 0 1.09.16 1.42.49.33.33.5.8.5 1.41 0 .63-.17 1.12-.5 1.45-.33.34-.81.51-1.42.51h-1.22v-3.86h1.22Zm.03 3.59c.52 0 .91-.15 1.18-.44.28-.29.41-.71.41-1.25 0-.52-.14-.93-.41-1.21-.27-.28-.67-.43-1.18-.43h-.95v3.32h.95Zm6.09 0h2.44v.27h-2.73v-3.86h2.64v.27h-2.34v1.49h1.85v.28h-1.85v1.56Zm12.87-2.44-.78 2.71h-.36l-1.2-3.86h.32l1.07 3.62 1.01-3.62h.34l1.01 3.63 1.08-3.63h.3l-1.21 3.86h-.36l-.78-2.71-.21-.84-.22.84Zm6.78 2.44h2.44v.27h-2.73v-3.86h2.64v.27h-2.35v1.49h1.85v.28h-1.85v1.56Zm6.21.27v-3.86h1.36c.42 0 .74.09.95.26.21.18.31.43.31.76 0 .23-.06.42-.18.57-.12.16-.3.26-.52.3.25.04.45.14.59.31.15.16.22.37.22.61 0 .33-.12.59-.36.77-.24.18-.57.27-1.01.27h-1.36Zm.29-2.08h1.08c.63 0 .94-.25.94-.76 0-.5-.31-.76-.94-.76h-1.08v1.51Zm0 1.81h1.13c.33 0 .58-.07.74-.2.17-.13.25-.32.25-.57 0-.25-.08-.45-.25-.58-.17-.13-.41-.2-.74-.2h-1.13v1.55Zm12.3-3.59c.62 0 1.09.16 1.42.49.33.33.5.8.5 1.41 0 .63-.17 1.12-.5 1.45-.33.34-.81.51-1.42.51h-1.22v-3.86h1.22Zm.03 3.59c.52 0 .91-.15 1.19-.44.27-.29.41-.71.41-1.25 0-.52-.14-.93-.41-1.21-.28-.28-.67-.43-1.19-.43h-.95v3.32h.95Zm6.09 0h2.44v.27h-2.73v-3.86h2.64v.27h-2.34v1.49h1.85v.28h-1.85v1.56Zm7.4-3.65c.73 0 1.21.28 1.46.85l-.25.2c-.1-.28-.24-.48-.44-.6-.19-.13-.45-.19-.76-.19-.23 0-.43.04-.59.11a.86.86 0 0 0-.38.28c-.09.12-.13.26-.13.41 0 .15.04.27.11.37.07.1.2.18.38.25s.42.13.74.18c.5.09.86.21 1.07.38.21.16.31.39.31.68 0 .21-.06.39-.18.55-.12.16-.29.28-.51.37-.22.09-.48.13-.76.13-.4 0-.74-.08-1.02-.24-.28-.16-.47-.39-.57-.68l.26-.2c.08.28.23.49.47.63.24.15.53.22.88.22.33 0 .61-.07.82-.2.21-.14.32-.32.32-.56a.57.57 0 0 0-.26-.49c-.17-.12-.47-.22-.9-.29a3.86 3.86 0 0 1-.86-.23c-.21-.09-.36-.2-.45-.33a.868.868 0 0 1-.14-.5c0-.2.06-.38.17-.55.11-.17.28-.3.49-.4.21-.1.46-.15.74-.15Zm5.64.06v3.86h-.29v-3.86h.29Zm5.63 1.97h1.58v1.89h-.23v-.67c-.11.23-.27.41-.5.54-.22.13-.5.19-.83.19-.35 0-.66-.08-.92-.24-.26-.16-.46-.39-.61-.69-.14-.3-.21-.65-.21-1.05s.07-.75.22-1.05c.15-.3.35-.53.62-.69.26-.16.57-.24.92-.24.39 0 .71.08.96.23.25.16.44.39.56.71l-.27.14c-.09-.27-.24-.47-.45-.61-.21-.14-.48-.21-.81-.21-.29 0-.54.07-.76.21-.22.14-.39.34-.51.6-.12.26-.18.56-.18.91 0 .53.13.96.38 1.26.25.31.61.46 1.06.46.28 0 .52-.06.71-.17.19-.11.34-.26.43-.44.09-.18.14-.38.14-.58v-.21h-1.31v-.28Zm8.51-1.97v3.86h-.36l-2.05-3.03-.28-.51.02.48v3.06h-.28v-3.86h.37l2.04 3.02.29.52v-.48l-.01-3.06h.28Z"/></svg>